<svg width="96" height="45" viewBox="0 0 96 45" fill="none" xmlns="http://www.w3.org/2000/svg">
<path d="M95.2938 0.638794L25.5311 39.3259C19.7461 42.5134 14.8943 44.0992 10.9796 44.0728C6.54629 44.043 3.34201 41.9683 1.37469 37.8436C0.137665 35.1955 -0.20795 31.8464 0.333919 27.7909C0.875788 23.7354 2.27441 19.4238 4.52196 14.8403C6.39548 11.1342 9.45642 6.26814 13.7127 0.236871C12.2628 3.20556 11.1923 6.46867 10.5444 9.89463C9.39396 16.1458 10.3606 20.7457 13.4441 23.6995C14.9114 25.0763 16.9373 25.7761 19.5261 25.7935C21.5923 25.8074 23.9227 25.3831 26.5173 24.5206L95.2938 0.638794Z" fill="white"/>
</svg>
